<?xml version="1.0" standalone="no"?>
<!DOCTYPE svg PUBLIC "-//W3C//DTD SVG 20010904//EN"
 "http://www.w3.org/TR/2001/REC-SVG-20010904/DTD/svg10.dtd">
<svg version="1.0" xmlns="http://www.w3.org/2000/svg"
 width="400.000000pt" height="400.000000pt" viewBox="0 0 400.000000 400.000000"
 preserveAspectRatio="xMidYMid meet">
<metadata>
Created by potrace 1.11, written by Peter Selinger 2001-2013
</metadata>
<g transform="translate(0.000000,400.000000) scale(0.100000,-0.100000)"
fill="#000000" stroke="none">
<path d="M1703 3627 l-441 -92 -379 -314 c-208 -173 -381 -319 -385 -325 -3
-6 -61 -296 -128 -645 l-122 -633 362 -542 c200 -297 368 -547 374 -554 10
-10 1234 -262 1277 -262 16 0 1124 613 1146 634 6 6 82 265 168 576 l156 565
-181 550 c-112 340 -188 555 -198 562 -9 6 -271 138 -581 292 -390 194 -574
281 -595 280 -17 0 -230 -42 -473 -92z m494 -99 c12 -18 21 -33 20 -34 -1 -1
-29 1 -61 4 l-60 7 33 28 c18 15 36 27 39 27 4 0 17 -15 29 -32z m-272 2 c-14
-16 -30 -20 -74 -19 l-56 1 70 18 c39 10 72 18 74 19 2 0 -4 -8 -14 -19z
m-207 -139 l32 -6 -105 -88 c-58 -48 -111 -90 -118 -92 -7 -3 -33 34 -64 94
-29 54 -53 101 -53 105 0 7 260 -3 308 -13z m574 -27 c14 -3 28 -11 31 -18 3
-7 -75 -72 -184 -154 l-189 -143 -148 16 c-231 26 -228 7 -29 173 l172 143
160 -6 c88 -3 172 -8 187 -11z m-934 -139 c33 -60 57 -113 54 -117 -8 -7 -342
-78 -342 -72 0 15 215 313 221 307 4 -4 34 -57 67 -118z m1542 -25 l232 -94
-174 -58 c-95 -32 -180 -61 -190 -63 -13 -5 -25 22 -67 147 -54 161 -56 172
-42 166 5 -1 113 -46 241 -98z m-407 -95 c46 -66 81 -121 76 -123 -9 -4 -367
35 -407 44 -20 4 -5 19 105 104 70 54 131 98 135 97 4 -1 45 -56 91 -122z
m-1566 -47 c-32 -46 -53 -65 -76 -71 -18 -4 -37 -7 -42 -5 -9 3 146 138 158
138 3 0 -15 -28 -40 -62z m2417 -450 c40 -208 71 -378 70 -378 -5 0 -572 625
-576 634 -2 5 94 42 212 81 179 60 215 69 218 56 2 -9 36 -186 76 -393z
m-1573 334 c25 -7 25 -7 -22 -44 l-48 -37 -25 44 c-14 24 -26 46 -26 48 0 6
86 -3 121 -11z m-544 -126 l-81 -134 -131 -36 c-71 -19 -160 -44 -198 -55 -38
-11 -64 -15 -61 -9 4 6 52 75 106 154 75 109 106 146 126 151 48 12 287 61
304 62 11 1 -7 -37 -65 -133z m1097 64 c143 -17 261 -31 262 -33 1 -1 -44 -59
-102 -129 l-104 -127 -277 95 c-153 52 -279 97 -282 100 -3 2 4 11 15 18 10 8
48 37 84 65 59 45 69 50 105 45 22 -2 157 -18 299 -34z m-841 -100 c-11 -10
-142 -44 -147 -39 -2 2 19 41 47 87 l51 83 28 -62 c16 -35 25 -66 21 -69z
m-713 55 c0 -8 -100 -155 -105 -155 -4 0 -18 50 -30 106 -6 31 -5 31 47 41 65
13 88 15 88 8z m1970 -230 c27 -82 49 -149 47 -150 -1 -1 -64 19 -140 44
l-138 46 87 108 c48 59 89 105 91 103 2 -2 26 -70 53 -151z m-701 -31 c134
-46 246 -85 248 -87 2 -2 -69 -93 -158 -201 -89 -108 -164 -195 -166 -192 -3
3 -36 69 -73 148 -58 122 -72 164 -98 286 -26 124 -28 142 -13 137 9 -4 126
-44 260 -91z m-413 -71 c69 -143 79 -172 109 -315 l32 -156 -101 -6 c-107 -6
-776 -16 -776 -12 0 2 76 128 169 282 l170 279 148 42 c81 23 154 42 161 42 7
1 46 -69 88 -156z m1398 -38 c74 -82 134 -151 132 -152 -2 -2 -50 16 -107 39
l-104 43 -43 125 c-23 69 -36 118 -28 110 8 -8 75 -82 150 -165z m-1986 46
c-11 -31 -234 -388 -239 -383 -7 7 -70 259 -73 288 -1 14 27 26 144 60 158 46
173 49 168 35z m1574 -133 l156 -53 -275 -240 c-151 -132 -284 -247 -295 -255
-20 -14 -25 -10 -90 59 -38 41 -67 80 -64 87 3 7 89 114 191 238 137 166 191
225 203 221 10 -2 87 -28 174 -57z m563 -213 c148 -59 197 -84 223 -110 17
-19 32 -38 32 -43 0 -13 -381 -474 -387 -468 -11 11 -79 707 -68 702 5 -2 96
-38 200 -81z m-2535 -216 c0 -13 -189 -154 -197 -145 -2 1 29 96 69 211 l72
208 27 -129 c16 -71 28 -136 29 -145z m2201 259 c0 -2 20 -185 44 -408 l43
-405 -54 -67 -54 -67 -96 34 c-52 19 -101 38 -108 42 -19 12 -346 372 -345
381 0 9 551 490 562 491 4 1 7 0 8 -1z m-1036 -354 c6 -42 1 -60 -55 -194
l-62 -147 -221 -62 c-122 -33 -227 -61 -233 -61 -6 0 -86 112 -177 250 l-167
250 223 3 c122 1 326 3 453 5 l232 2 7 -46z m225 -70 l53 -56 -49 -43 c-27
-24 -52 -41 -55 -39 -3 2 -11 35 -18 74 -13 69 -9 120 8 120 4 0 32 -25 61
-56z m-1313 -197 c23 -111 40 -204 38 -205 -4 -5 -319 236 -322 246 -3 9 230
171 237 165 3 -3 24 -95 47 -206z m242 -29 c72 -109 131 -201 131 -206 0 -8
-178 -57 -184 -51 -4 5 -96 450 -96 464 0 15 11 0 149 -207z m2249 -60 c-147
-211 -148 -212 -148 -174 0 21 32 67 130 187 72 87 133 159 135 159 3 0 -50
-78 -117 -172z m-990 80 c27 -29 67 -74 90 -99 l42 -47 -137 51 c-76 28 -140
52 -143 55 -4 3 89 91 97 92 1 0 24 -24 51 -52z m1131 -300 c-18 -122 -35
-226 -39 -231 -7 -8 -190 84 -190 96 0 12 252 368 257 363 3 -2 -10 -105 -28
-228z m-1479 -17 c0 -92 -3 -188 -6 -213 l-6 -45 -132 -20 c-72 -12 -132 -20
-132 -19 -1 0 41 101 92 222 89 209 96 222 127 232 60 19 57 26 57 -157z m407
64 c251 -92 259 -96 301 -142 23 -26 42 -50 42 -53 0 -5 -589 -101 -617 -100
-9 0 -13 23 -13 83 0 127 12 307 21 307 4 0 124 -43 266 -95z m-660 23 c-40
-100 -140 -328 -143 -325 -3 2 -42 60 -89 128 l-85 123 148 42 c165 47 176 49
169 32z m-819 -171 c12 -15 74 -253 63 -241 -4 5 -69 99 -143 210 l-135 201
103 -79 c57 -44 107 -85 112 -91z m476 -89 c48 -71 85 -128 82 -128 -9 0 -331
221 -334 229 -5 14 142 49 154 37 6 -6 50 -68 98 -138z m-38 -204 l71 -50
-119 -82 c-74 -50 -120 -77 -123 -69 -2 6 -25 91 -50 187 -25 96 -48 181 -50
188 -4 11 89 -49 271 -174z m1372 94 c-13 -19 -598 -356 -620 -358 -10 0 -10
251 0 267 5 8 478 93 626 112 5 0 2 -9 -6 -21z m466 -36 l110 -28 -35 -21
c-30 -18 -604 -339 -667 -372 -30 -16 -31 -18 100 182 l105 158 104 59 c118
67 106 66 283 22z m-1216 -201 l-3 -49 -95 70 c-52 38 -96 73 -98 77 -1 5 41
14 95 22 l98 14 3 -42 c2 -23 2 -65 0 -92z m-182 -157 c-7 -5 -446 32 -444 38
2 4 45 37 97 72 l94 65 127 -87 c70 -48 127 -87 126 -88z m711 54 c-114 -176
-142 -218 -151 -218 -14 0 -147 102 -141 109 9 9 328 189 338 190 4 1 -17 -36
-46 -81z"/>
</g>
</svg>
