<?xml version="1.0" encoding="UTF-8"?>
<svg xmlns="http://www.w3.org/2000/svg" xmlns:xlink="http://www.w3.org/1999/xlink" viewBox="0 0 128 128" width="128px" height="128px">
<g id="surface6943542">
<path style=" stroke:none;fill-rule:nonzero;fill:rgb(18.039216%,80.000001%,25.490198%);fill-opacity:1;" d="M 63.976562 12 C 62.515625 12 61.058594 12.359375 59.796875 13.078125 L 20.15625 35.960938 C 17.597656 37.441406 16 40.242188 16 43.203125 L 16 84.71875 C 16 87.71875 17.597656 90.480469 20.15625 91.960938 L 30.5625 97.960938 C 35.601562 100.441406 37.398438 100.4375 39.679688 100.4375 C 47.160156 100.4375 51.4375 95.917969 51.4375 88.078125 L 51.4375 45.242188 C 51.4375 44.601562 50.921875 44.078125 50.28125 44.078125 L 45.28125 44.078125 C 44.601562 44.078125 44.117188 44.601562 44.117188 45.242188 L 44.117188 88.039062 C 44.117188 91.558594 40.480469 95 34.601562 92.078125 L 23.71875 85.796875 C 23.320312 85.597656 23.078125 85.160156 23.078125 84.71875 L 23.078125 43.242188 C 23.078125 42.761719 23.320312 42.355469 23.71875 42.117188 L 63.359375 19.242188 C 63.71875 19.003906 64.203125 19.003906 64.601562 19.242188 L 104.242188 42.117188 C 104.640625 42.355469 104.882812 42.761719 104.882812 43.203125 L 104.882812 84.71875 C 104.882812 85.160156 104.640625 85.597656 104.28125 85.796875 L 64.601562 108.71875 C 64.242188 108.917969 63.71875 108.917969 63.359375 108.71875 L 53.15625 102.679688 C 52.875 102.480469 52.484375 102.441406 52.203125 102.601562 C 49.363281 104.203125 48.84375 104.398438 46.203125 105.320312 C 45.5625 105.519531 44.5625 105.917969 46.5625 107.039062 L 59.796875 114.882812 C 61.078125 115.601562 62.519531 116 63.960938 116 C 65.441406 116 66.875 115.601562 68.15625 114.882812 L 107.84375 91.960938 C 110.402344 90.480469 112 87.71875 112 84.71875 L 112 43.242188 C 112 40.242188 110.402344 37.480469 107.84375 36 L 68.15625 13.078125 C 66.894531 12.359375 65.4375 12 63.976562 12 Z M 74.640625 44.023438 C 63.320312 44.023438 56.5625 48.820312 56.5625 56.820312 C 56.5625 65.5 63.277344 67.898438 74.15625 68.976562 C 87.15625 70.257812 88.15625 72.183594 88.15625 74.742188 C 88.15625 79.140625 84.601562 81.023438 76.242188 81.023438 C 65.722656 81.023438 63.402344 78.378906 62.640625 73.179688 C 62.5625 72.621094 62.082031 72.21875 61.523438 72.21875 L 56.359375 72.21875 C 55.71875 72.21875 55.242188 72.742188 55.242188 73.34375 C 55.242188 80.023438 58.882812 87.976562 76.242188 87.976562 C 88.800781 87.976562 96 83.023438 96 74.382812 C 96 65.824219 90.199219 63.539062 78.039062 61.898438 C 65.679688 60.296875 64.4375 59.457031 64.4375 56.578125 C 64.4375 54.179688 65.519531 51.023438 74.640625 51.023438 C 82.761719 51.023438 85.800781 52.777344 87.039062 58.257812 C 87.160156 58.777344 87.597656 59.179688 88.15625 59.179688 L 93.320312 59.179688 C 93.640625 59.179688 93.917969 59.019531 94.15625 58.78125 C 94.355469 58.582031 94.476562 58.257812 94.4375 57.898438 C 93.636719 48.457031 87.359375 44.023438 74.640625 44.023438 Z M 74.640625 44.023438 "/>
</g>
</svg>
